<svg width="100%" height="100%" viewBox="0 0 100 100" xmlns="http://www.w3.org/2000/svg"><polygon points="24,44 17,14 43,34" fill="#FFCDB2"></polygon><polygon points="76,44 83,14 57,34" fill="#FFCDB2"></polygon><polygon points="27,41 21,18 41,33" fill="#FFAAC5"></polygon><polygon points="73,41 79,18 59,33" fill="#FFAAC5"></polygon><circle cx="50" cy="58" r="35" fill="#FFCDB2"></circle><circle cx="36" cy="52" r="12" fill="white"></circle><circle cx="64" cy="52" r="12" fill="white"></circle><circle cx="36" cy="53" r="8" fill="#5BC8E0"></circle><circle cx="64" cy="53" r="8" fill="#5BC8E0"></circle><circle cx="36" cy="53" r="5" fill="#1A1A2E"></circle><circle cx="64" cy="53" r="5" fill="#1A1A2E"></circle><circle cx="39" cy="50" r="2.5" fill="white"></circle><circle cx="67" cy="50" r="2.5" fill="white"></circle><polygon points="50,64 47,67 53,67" fill="#FF9BAA"></polygon><path d="M47,68 Q50,72 53,68" stroke="#FF9BAA" stroke-width="2" fill="none" stroke-linecap="round"></path><circle cx="24" cy="65" r="9" fill="rgba(255,150,160,0.3)"></circle><circle cx="76" cy="65" r="9" fill="rgba(255,150,160,0.3)"></circle></svg>