<svg width="100%" height="100%" viewBox="0 0 100 115" xmlns="http://www.w3.org/2000/svg"><ellipse cx="33" cy="24" rx="11" ry="27" fill="#EAE0F5"></ellipse><ellipse cx="67" cy="24" rx="11" ry="27" fill="#EAE0F5"></ellipse><ellipse cx="33" cy="24" rx="6.5" ry="21" fill="#FFBBD8"></ellipse><ellipse cx="67" cy="24" rx="6.5" ry="21" fill="#FFBBD8"></ellipse><circle cx="50" cy="76" r="33" fill="#EAE0F5"></circle><circle cx="37" cy="70" r="11" fill="white"></circle><circle cx="63" cy="70" r="11" fill="white"></circle><circle cx="37" cy="71" r="7.5" fill="#E05080"></circle><circle cx="63" cy="71" r="7.5" fill="#E05080"></circle><circle cx="37" cy="71" r="4.5" fill="#8B1A4A"></circle><circle cx="63" cy="71" r="4.5" fill="#8B1A4A"></circle><circle cx="40" cy="68" r="2" fill="white"></circle><circle cx="66" cy="68" r="2" fill="white"></circle><ellipse cx="50" cy="81" rx="3" ry="2" fill="#FFAAC8"></ellipse><path d="M47,84 Q50,88 53,84" stroke="#FFAAC8" stroke-width="2" fill="none" stroke-linecap="round"></path><circle cx="28" cy="80" r="8" fill="rgba(255,160,200,0.3)"></circle><circle cx="72" cy="80" r="8" fill="rgba(255,160,200,0.3)"></circle></svg>