<svg width="100%" height="100%" viewBox="0 0 100 100" xmlns="http://www.w3.org/2000/svg"><polygon points="20,50 13,18 44,36" fill="#E8742C"></polygon><polygon points="80,50 87,18 56,36" fill="#E8742C"></polygon><polygon points="23,47 17,22 42,35" fill="#FFBBB0"></polygon><polygon points="77,47 83,22 58,35" fill="#FFBBB0"></polygon><circle cx="50" cy="57" r="34" fill="#E8742C"></circle><ellipse cx="50" cy="69" rx="22" ry="15" fill="#FFF5EE"></ellipse><circle cx="35" cy="50" r="12" fill="white"></circle><circle cx="65" cy="50" r="12" fill="white"></circle><circle cx="35" cy="51" r="8" fill="#3A1E08"></circle><circle cx="65" cy="51" r="8" fill="#3A1E08"></circle><circle cx="35" cy="51" r="5" fill="#1A0A00"></circle><circle cx="65" cy="51" r="5" fill="#1A0A00"></circle><circle cx="38" cy="48" r="2.5" fill="white"></circle><circle cx="68" cy="48" r="2.5" fill="white"></circle><ellipse cx="50" cy="64" rx="4.5" ry="3.5" fill="#1A1A1A"></ellipse><path d="M47,68 Q50,73 53,68" stroke="#C06030" stroke-width="2" fill="none" stroke-linecap="round"></path><circle cx="25" cy="63" r="8" fill="rgba(255,130,80,0.25)"></circle><circle cx="75" cy="63" r="8" fill="rgba(255,130,80,0.25)"></circle></svg>