<svg width="100%" height="100%" viewBox="0 0 100 100" xmlns="http://www.w3.org/2000/svg"><circle cx="16" cy="36" r="22" fill="#A898B8"></circle><circle cx="84" cy="36" r="22" fill="#A898B8"></circle><circle cx="16" cy="36" r="14" fill="#C8BAD8"></circle><circle cx="84" cy="36" r="14" fill="#C8BAD8"></circle><circle cx="50" cy="60" r="32" fill="#B8AECA"></circle><circle cx="37" cy="54" r="11" fill="white"></circle><circle cx="63" cy="54" r="11" fill="white"></circle><circle cx="37" cy="55" r="7.5" fill="#2A2050"></circle><circle cx="63" cy="55" r="7.5" fill="#2A2050"></circle><circle cx="37" cy="55" r="4.5" fill="#110E28"></circle><circle cx="63" cy="55" r="4.5" fill="#110E28"></circle><circle cx="40" cy="52" r="2.5" fill="white"></circle><circle cx="66" cy="52" r="2.5" fill="white"></circle><ellipse cx="50" cy="67" rx="10" ry="8" fill="#5A4878"></ellipse><ellipse cx="47" cy="65" rx="3.5" ry="2.5" fill="rgba(255,255,255,0.25)"></ellipse><path d="M44,75 Q50,81 56,75" stroke="#7A6898" stroke-width="2" fill="none" stroke-linecap="round"></path><circle cx="26" cy="65" r="8" fill="rgba(200,180,230,0.4)"></circle><circle cx="74" cy="65" r="8" fill="rgba(200,180,230,0.4)"></circle></svg>