<svg width="100%" height="100%" viewBox="0 0 100 100" xmlns="http://www.w3.org/2000/svg"><path d="M18,56 Q10,30 26,16 Q46,4 68,14 Q86,22 90,46 Q94,68 78,78 Q56,90 30,80 Q12,72 18,56 Z" fill="#C8E0F4" stroke="#1A1A2E" stroke-width="3.5" stroke-linejoin="round"></path><path d="M20,68 Q36,84 58,80 Q74,74 82,62" stroke="#E6F4FC" stroke-width="13" fill="none" stroke-linecap="round" opacity="0.8"></path><circle cx="25" cy="40" r="7.5" fill="white" stroke="#1A1A2E" stroke-width="2"></circle><circle cx="26.5" cy="41" r="4.8" fill="#1A1A2E"></circle><circle cx="28.5" cy="39" r="1.8" fill="white"></circle><path d="M32,52 Q42,62 52,56" stroke="#1A1A2E" stroke-width="3" fill="none" stroke-linecap="round"></path><path d="M52,70 Q60,86 70,84 Q64,74 52,70 Z" fill="#9EC8E0" stroke="#1A1A2E" stroke-width="2.5" stroke-linejoin="round"></path><path d="M83,40 Q96,28 98,40 Q94,50 98,60 Q96,72 83,60 Q87,50 83,40 Z" fill="#9EC8E0" stroke="#1A1A2E" stroke-width="2.5" stroke-linejoin="round"></path><circle cx="20" cy="60" r="7" fill="rgba(120,190,230,0.3)"></circle></svg>