<svg width="100%" height="100%" viewBox="0 0 100 120" xmlns="http://www.w3.org/2000/svg"><ellipse cx="50" cy="85" rx="36" ry="30" fill="#ffb3c6"></ellipse><path d="M14,62 Q22,50 34,55 Q41,42 50,50 Q59,42 66,55 Q78,50 86,62 Z" fill="#ffb3c6"></path><path d="M14,62 Q22,50 34,55 Q41,42 50,50 Q59,42 66,55 Q78,50 86,62" stroke="rgba(50,30,40,0.58)" stroke-width="1.8" fill="none" stroke-linecap="round" stroke-linejoin="round"></path><circle cx="36" cy="67" r="11" fill="white"></circle><circle cx="64" cy="67" r="11" fill="white"></circle><circle cx="36" cy="68" r="7.5" fill="#2A1A2A"></circle><circle cx="64" cy="68" r="7.5" fill="#2A1A2A"></circle><circle cx="36" cy="68" r="4.5" fill="#111"></circle><circle cx="64" cy="68" r="4.5" fill="#111"></circle><circle cx="39" cy="65" r="2.5" fill="white"></circle><circle cx="67" cy="65" r="2.5" fill="white"></circle><path d="M38,80 Q50,90 62,80" stroke="rgba(50,30,40,0.58)" stroke-width="3" fill="none" stroke-linecap="round"></path><circle cx="24" cy="75" r="7" fill="rgba(255,182,193,0.5)"></circle><circle cx="76" cy="75" r="7" fill="rgba(255,182,193,0.5)"></circle></svg>